<?xml version="1.0" encoding="iso-8859-1"?>
<!-- Generator: Adobe Illustrator 19.0.0, SVG Export Plug-In . SVG Version: 6.00 Build 0)  -->
<svg version="1.1" id="Capa_1" xmlns="http://www.w3.org/2000/svg" xmlns:xlink="http://www.w3.org/1999/xlink" x="0px" y="0px"
	 viewBox="0 0 386.336 386.336" style="enable-background:new 0 0 386.336 386.336;" xml:space="preserve">
<g>
	<g>
		<path d="M174.968,98.016l-28.64-14.32c-3.513-1.761-7.785-0.71-10.08,2.48l-13.36,18.48l-13.36-18.48
			c-2.295-3.19-6.567-4.241-10.08-2.48l-28.64,14.32c-2.69,1.356-4.391,4.108-4.4,7.12v45.12c-0.044,4.418,3.502,8.035,7.92,8.08
			c0.027,0,0.054,0,0.08,0h96.96c4.418,0,8-3.582,8-8v-45.2C179.359,102.124,177.658,99.372,174.968,98.016z M163.688,142.336
			h-81.28v-32l18.16-9.04l16,22c2.591,3.579,7.593,4.38,11.171,1.789c0.687-0.498,1.291-1.101,1.789-1.789l16-22l18.16,9.04V142.336
			z"/>
	</g>
</g>
<g>
	<g>
		<path d="M124.544,0.041c-18.005-0.892-33.323,12.98-34.215,30.985c-0.053,1.076-0.053,2.155,0,3.231
			c-0.08,16.72,12.96,42,32.56,42c19.6,0,32.64-25.28,32.64-42C156.42,16.252,142.548,0.933,124.544,0.041z M122.888,60.016
			c-7.92,0-16.64-15.28-16.64-26c0.344-8.939,7.694-16.007,16.64-16v-0.32c9.066-0.002,16.466,7.255,16.64,16.32
			C139.528,44.496,130.808,60.016,122.888,60.016z"/>
	</g>
</g>
<g>
	<g>
		<path d="M315.208,98.016l-28.64-14.32c-3.513-1.761-7.785-0.71-10.08,2.48l-13.36,18.56l-13.36-18.56
			c-2.295-3.19-6.567-4.241-10.08-2.48l-28.64,14.32c-2.69,1.356-4.391,4.108-4.4,7.12v45.12c-0.044,4.418,3.502,8.035,7.92,8.08
			c0.027,0,0.054,0,0.08,0h96.96c4.418,0,8-3.582,8-8v-45.2C319.599,102.124,317.898,99.372,315.208,98.016z M303.928,142.336
			h-81.28v-32l18.16-9.04l16,22c2.591,3.579,7.593,4.38,11.171,1.789c0.687-0.498,1.291-1.101,1.789-1.789l16-22l18.16,9.04V142.336
			z"/>
	</g>
</g>
<g>
	<g>
		<path d="M264.783,0.041c-18.004-0.892-33.323,12.98-34.215,30.985c-0.053,1.076-0.053,2.154,0,3.231
			c-0.08,16.72,12.96,42,32.56,42c19.6,0,32.64-25.28,32.64-42C296.66,16.252,282.788,0.933,264.783,0.041z M263.048,60.016
			c-7.92,0-16.56-15.28-16.56-26c0.344-8.939,7.694-16.007,16.64-16v-0.32c9.035,0.042,16.386,7.286,16.56,16.32
			C279.688,44.496,270.968,60.016,263.048,60.016z"/>
	</g>
</g>
<g>
	<g>
		<path d="M348.568,170.016H37.848c-9.278,0-16.8,7.522-16.8,16.8v49.92c0,9.278,7.522,16.8,16.8,16.8h14v116
			c0,9.278,7.522,16.8,16.8,16.8h249.04c9.278,0,16.8-7.522,16.8-16.8v-116.08h14c9.278,0,16.8-7.522,16.8-16.8v-50
			C365.201,177.471,357.753,170.059,348.568,170.016z M349.368,236.816c0,0.442-0.358,0.8-0.8,0.8h-22.08c-4.418,0-8,3.582-8,8
			v123.92c0,0.442-0.358,0.8-0.8,0.8H68.728c-0.442,0-0.8-0.358-0.8-0.8v-124.08c0-4.418-3.582-8-8-8h-22.08
			c-0.442,0-0.8-0.358-0.8-0.8v-50c0-0.442,0.358-0.8,0.8-0.8h310.72c0.442,0,0.8,0.358,0.8,0.8V236.816z"/>
	</g>
</g>
<g>
	<g>
		<path d="M270.728,222.896h-154.96c-9.278,0-16.8,7.522-16.8,16.8v76.4c0,9.278,7.522,16.8,16.8,16.8h154.96
			c9.278,0,16.8-7.522,16.8-16.8v-76.4C287.528,230.418,280.006,222.896,270.728,222.896z M271.528,316.096
			c0,0.442-0.358,0.8-0.8,0.8h-154.96c-0.442,0-0.8-0.358-0.8-0.8v-76.4c0-0.442,0.358-0.8,0.8-0.8h154.96
			c0.442,0,0.8,0.358,0.8,0.8V316.096z"/>
	</g>
</g>
<g>
</g>
<g>
</g>
<g>
</g>
<g>
</g>
<g>
</g>
<g>
</g>
<g>
</g>
<g>
</g>
<g>
</g>
<g>
</g>
<g>
</g>
<g>
</g>
<g>
</g>
<g>
</g>
<g>
</g>
</svg>
