<?xml version="1.0" encoding="iso-8859-1"?>
<!-- Generator: Adobe Illustrator 19.0.0, SVG Export Plug-In . SVG Version: 6.00 Build 0)  -->
<svg version="1.1" id="Capa_1" xmlns="http://www.w3.org/2000/svg" xmlns:xlink="http://www.w3.org/1999/xlink" x="0px" y="0px"
	 viewBox="0 0 365.592 365.592" style="enable-background:new 0 0 365.592 365.592;" xml:space="preserve">
<g>
	<g>
		<path d="M192.42,57.584c-0.281-0.285-0.564-0.567-0.848-0.848c-37.224-37.257-97.603-37.283-134.859-0.059
			s-37.283,97.603-0.059,134.859s97.603,37.283,134.859,0.059c0.02-0.02,0.04-0.04,0.059-0.059
			C228.796,154.781,229.176,94.808,192.42,57.584z M180.739,179.808c-0.149,0.15-0.298,0.299-0.448,0.448
			c-30.928,31.056-81.176,31.16-112.232,0.232C37.004,149.56,36.9,99.312,67.828,68.256c30.928-31.056,81.176-31.16,112.232-0.232
			c0.077,0.077,0.155,0.154,0.232,0.232C211.22,98.937,211.42,148.88,180.739,179.808z"/>
	</g>
</g>
<g>
	<g>
		<path d="M353.332,294.096l-117.12-117.2c29.178-61.957,2.605-135.836-59.351-165.013C114.904-17.295,41.025,9.277,11.847,71.234
			S9.242,207.07,71.198,236.247c33.511,15.782,72.323,15.756,105.813-0.071l117.12,117.12c16.348,16.348,42.852,16.348,59.2,0
			C369.679,336.948,369.679,310.444,353.332,294.096z M124.212,232.096c-59.602,0.21-108.09-47.937-108.3-107.539
			s47.937-108.09,107.539-108.3c59.602-0.21,108.09,47.937,108.3,107.539c0.101,28.562-11.126,56-31.219,76.3
			C180.4,220.548,152.909,232.075,124.212,232.096z M191.572,228.176c7.28-4.622,14.063-9.983,20.24-16
			c6.026-6.169,11.388-12.953,16-20.24l19.84,19.84l-36.64,36.64L191.572,228.176z M342.052,342.016h-0.08
			c-10.232,9.763-26.328,9.763-36.56,0l-82.48-82.72l36.4-36.4l82.72,82.48C352.163,315.496,352.163,331.895,342.052,342.016z"/>
	</g>
</g>
<g>
</g>
<g>
</g>
<g>
</g>
<g>
</g>
<g>
</g>
<g>
</g>
<g>
</g>
<g>
</g>
<g>
</g>
<g>
</g>
<g>
</g>
<g>
</g>
<g>
</g>
<g>
</g>
<g>
</g>
</svg>
