<?xml version="1.0" encoding="iso-8859-1"?>
<!-- Generator: Adobe Illustrator 19.0.0, SVG Export Plug-In . SVG Version: 6.00 Build 0)  -->
<svg version="1.1" id="Capa_1" xmlns="http://www.w3.org/2000/svg" xmlns:xlink="http://www.w3.org/1999/xlink" x="0px" y="0px"
	 viewBox="0 0 413.226 413.226" style="enable-background:new 0 0 413.226 413.226;" xml:space="preserve">
<g>
	<g>
		<path d="M405.226,76.093h-19.44v-27.04c0-4.418-3.582-8-8-8h-43.2c-4.418,0-8,3.582-8,8v27.04H93.226
			c-3.348-0.011-6.348,2.064-7.52,5.2l-13.76,36.8l-28.32,2.48c-4.401,0.393-7.65,4.279-7.256,8.68
			c0.028,0.309,0.073,0.616,0.136,0.92l12.8,60.48l-48.72,120.88c-1.657,4.096,0.32,8.759,4.416,10.416
			c0.127,0.051,0.255,0.099,0.384,0.144l4.72,1.6l-4.32,10.96c-1.595,4.064,0.363,8.657,4.4,10.32l65.36,26.64
			c0.967,0.383,2,0.573,3.04,0.56c3.21-0.003,6.108-1.924,7.36-4.88l6.48-15.36l10.16,3.52c0.826,0.272,1.691,0.407,2.56,0.4
			c3.651,0.156,6.944-2.182,8-5.68l40-132.16h51.84c29.44,0,40-34.4,43.04-49.68h157.2c4.418,0,8-3.582,8-8v-76.24
			C413.226,79.674,409.644,76.093,405.226,76.093z M342.586,57.053h27.2v19.04h-27.2V57.053z M74.266,353.853l-50.64-20.72
			l1.68-4.24l48,16.56l3.92,1.36L74.266,353.853z M397.226,107.613h-127.28c-4.418,0-8,3.582-8,8s3.582,8,8,8h127.28v28.8h-156.56
			c-4.069-0.029-7.512,3-8,7.04c0,0.4-5.84,42.64-28.4,42.64h-57.68c-3.651-0.156-6.944,2.182-8,5.68l-20,67.68l-26.24-9.52
			c-4.153-1.591-8.809,0.487-10.4,4.64s0.487,8.809,4.64,10.4l27.04,9.84l-4.24,14l-27.76-10.16
			c-4.057-1.749-8.764,0.122-10.513,4.18c-1.749,4.057,0.122,8.764,4.18,10.513c0.317,0.137,0.642,0.252,0.974,0.347l28.88,10.32
			l-5.28,17.52l-81.28-27.84l46.48-115.2c0.591-1.473,0.73-3.088,0.4-4.64l-11.44-54.16l24-2.16c3.062-0.259,5.705-2.249,6.8-5.12
			l13.6-36.32h298.8V107.613z"/>
	</g>
</g>
<g>
	<g>
		<path d="M212.186,150.893l-0.08,0.24h-47.2c-3.368,0.001-6.375,2.112-7.52,5.28l-9.44,26.24c-1.487,4.16,0.68,8.739,4.84,10.226
			c0.013,0.005,0.026,0.009,0.04,0.014c0.872,0.316,1.792,0.479,2.72,0.48c3.368-0.001,6.375-2.112,7.52-5.28l7.52-21.2h41.6
			c4.418,0,8-3.582,8-8S216.604,150.893,212.186,150.893z"/>
	</g>
</g>
<g>
</g>
<g>
</g>
<g>
</g>
<g>
</g>
<g>
</g>
<g>
</g>
<g>
</g>
<g>
</g>
<g>
</g>
<g>
</g>
<g>
</g>
<g>
</g>
<g>
</g>
<g>
</g>
<g>
</g>
</svg>
