<?xml version="1.0" encoding="iso-8859-1"?>
<!-- Generator: Adobe Illustrator 19.0.0, SVG Export Plug-In . SVG Version: 6.00 Build 0)  -->
<svg version="1.1" id="Capa_1" xmlns="http://www.w3.org/2000/svg" xmlns:xlink="http://www.w3.org/1999/xlink" x="0px" y="0px"
	 viewBox="0 0 359.952 359.952" style="enable-background:new 0 0 359.952 359.952;" xml:space="preserve">
<g>
	<g>
		<path d="M349.416,99.952l-165.36-98.88c-2.475-1.429-5.525-1.429-8,0l-165.52,98.88c-2.43,1.44-3.919,4.055-3.92,6.88v24
			c0,4.418,3.582,8,8,8h330.72c4.418,0,8-3.582,8-8v-24C353.335,104.007,351.846,101.392,349.416,99.952z M22.616,122.832v-11.68
			l157.36-93.92l157.36,93.92l0,11.68H22.616z"/>
	</g>
</g>
<g>
	<g>
		<path d="M77.656,152.592h-39.36c-4.418,0-8,3.582-8,8v135.36c0,4.418,3.582,8,8,8h39.36c4.418,0,8-3.582,8-8v-135.36
			C85.656,156.174,82.074,152.592,77.656,152.592z M69.656,287.952h-23.36v-119.36h23.36V287.952z"/>
	</g>
</g>
<g>
	<g>
		<path d="M199.656,152.592h-39.36c-4.418,0-8,3.582-8,8v135.36c0,4.418,3.582,8,8,8h39.36c4.418,0,8-3.582,8-8v-135.36
			C207.656,156.174,204.074,152.592,199.656,152.592z M191.656,287.952h-23.36v-119.36h23.36V287.952z"/>
	</g>
</g>
<g>
	<g>
		<path d="M321.656,152.592h-39.36c-4.418,0-8,3.582-8,8v135.36c0,4.418,3.582,8,8,8h39.36c4.418,0,8-3.582,8-8v-135.36
			C329.656,156.174,326.074,152.592,321.656,152.592z M313.656,287.952h-23.36v-119.36h23.36V287.952z"/>
	</g>
</g>
<g>
	<g>
		<path d="M179.976,47.952c-18.008,0.044-32.596,14.632-32.64,32.64c0,18.027,14.613,32.64,32.64,32.64
			c18.027,0,32.64-14.613,32.64-32.64C212.616,62.565,198.003,47.952,179.976,47.952z M180.056,97.232
			c-9.19,0-16.64-7.45-16.64-16.64c0-9.159,7.401-16.596,16.56-16.64c9.172,0.044,16.596,7.468,16.64,16.64h0.08
			C196.696,89.782,189.246,97.232,180.056,97.232z"/>
	</g>
</g>
<g>
	<g>
		<path d="M326.616,317.312H33.336c-4.418,0-8,3.582-8,8s3.582,8,8,8h293.28c4.418,0,8-3.582,8-8S331.034,317.312,326.616,317.312z"
			/>
	</g>
</g>
<g>
	<g>
		<path d="M345.336,343.952H14.616c-4.418,0-8,3.582-8,8s3.582,8,8,8h330.72c4.418,0,8-3.582,8-8S349.754,343.952,345.336,343.952z"
			/>
	</g>
</g>
<g>
</g>
<g>
</g>
<g>
</g>
<g>
</g>
<g>
</g>
<g>
</g>
<g>
</g>
<g>
</g>
<g>
</g>
<g>
</g>
<g>
</g>
<g>
</g>
<g>
</g>
<g>
</g>
<g>
</g>
</svg>
