<?xml version="1.0" encoding="iso-8859-1"?>
<!-- Generator: Adobe Illustrator 19.0.0, SVG Export Plug-In . SVG Version: 6.00 Build 0)  -->
<svg version="1.1" id="Capa_1" xmlns="http://www.w3.org/2000/svg" xmlns:xlink="http://www.w3.org/1999/xlink" x="0px" y="0px"
	 viewBox="0 0 405.28 405.28" style="enable-background:new 0 0 405.28 405.28;" xml:space="preserve">
<g>
	<g>
		<path d="M397.28,74.64H224.8c-8.455,0.036-16.501,3.638-22.16,9.92c-5.659-6.281-13.706-9.884-22.16-9.92h-104v-24
			c0-4.418-3.582-8-8-8H33.76c-4.418,0-8,3.582-8,8v24H8c-4.418,0-8,3.582-8,8v241.28c0,4.418,3.582,8,8,8h172.48
			c7.82,0,14.16,6.339,14.16,14.16c0,0.027,0,0.053,0,0.08c0,4.418,3.582,8,8,8s8-3.582,8-8c0-7.82,6.34-14.16,14.16-14.16h172.48
			c4.418,0,8-3.582,8-8V82.64C405.28,78.222,401.698,74.64,397.28,74.64z M41.76,58.64H60.4v16H41.76V58.64z M194.64,319.52
			c-4.357-2.324-9.222-3.533-14.16-3.52H16V90.64h164.48c7.82,0,14.16,6.34,14.16,14.16V319.52z M389.28,315.92H224.8
			c-4.938-0.013-9.803,1.196-14.16,3.52V104.8c0-7.82,6.34-14.16,14.16-14.16h164.48V315.92z"/>
	</g>
</g>
<g>
	<g>
		<path d="M166.56,346.64H21.92c-4.418,0-8,3.582-8,8s3.582,8,8,8h144.64c4.418,0,8-3.582,8-8S170.978,346.64,166.56,346.64z"/>
	</g>
</g>
<g>
	<g>
		<path d="M382.64,346.64H238.08c-4.418,0-8,3.582-8,8s3.582,8,8,8h144.56c4.418,0,8-3.582,8-8S387.058,346.64,382.64,346.64z"/>
	</g>
</g>
<g>
	<g>
		<path d="M118.56,122.24H52c-4.418,0-8,3.582-8,8s3.582,8,8,8h66.56c4.418,0,8-3.582,8-8S122.978,122.24,118.56,122.24z"/>
	</g>
</g>
<g>
	<g>
		<path d="M158.56,167.84H52c-4.418,0-8,3.582-8,8s3.582,8,8,8h106.56c4.418,0,8-3.582,8-8S162.978,167.84,158.56,167.84z"/>
	</g>
</g>
<g>
	<g>
		<path d="M158.56,213.52H52c-4.418,0-8,3.582-8,8s3.582,8,8,8h106.56c4.418,0,8-3.582,8-8S162.978,213.52,158.56,213.52z"/>
	</g>
</g>
<g>
	<g>
		<path d="M158.56,259.2H52c-4.418,0-8,3.582-8,8s3.582,8,8,8h106.56c4.418,0,8-3.582,8-8S162.978,259.2,158.56,259.2z"/>
	</g>
</g>
<g>
	<g>
		<path d="M313.28,122.24h-66.56c-4.418,0-8,3.582-8,8s3.582,8,8,8h66.56c4.418,0,8-3.582,8-8S317.698,122.24,313.28,122.24z"/>
	</g>
</g>
<g>
	<g>
		<path d="M353.28,167.84H246.72c-4.418,0-8,3.582-8,8s3.582,8,8,8h106.56c4.418,0,8-3.582,8-8S357.698,167.84,353.28,167.84z"/>
	</g>
</g>
<g>
	<g>
		<path d="M353.28,213.52H246.72c-4.418,0-8,3.582-8,8s3.582,8,8,8h106.56c4.418,0,8-3.582,8-8S357.698,213.52,353.28,213.52z"/>
	</g>
</g>
<g>
	<g>
		<path d="M353.28,259.2H246.72c-4.418,0-8,3.582-8,8s3.582,8,8,8h106.56c4.418,0,8-3.582,8-8S357.698,259.2,353.28,259.2z"/>
	</g>
</g>
<g>
</g>
<g>
</g>
<g>
</g>
<g>
</g>
<g>
</g>
<g>
</g>
<g>
</g>
<g>
</g>
<g>
</g>
<g>
</g>
<g>
</g>
<g>
</g>
<g>
</g>
<g>
</g>
<g>
</g>
</svg>
