<?xml version="1.0" encoding="iso-8859-1"?>
<!-- Generator: Adobe Illustrator 19.0.0, SVG Export Plug-In . SVG Version: 6.00 Build 0)  -->
<svg version="1.1" id="Capa_1" xmlns="http://www.w3.org/2000/svg" xmlns:xlink="http://www.w3.org/1999/xlink" x="0px" y="0px"
	 viewBox="0 0 420.64 420.64" style="enable-background:new 0 0 420.64 420.64;" xml:space="preserve">
<g>
	<g>
		<path d="M245.84,352.852l-12.64-36.88c-1.131-4.271-5.51-6.817-9.781-5.686c-4.271,1.131-6.817,5.51-5.686,9.781
			c0.092,0.349,0.208,0.692,0.347,1.025l8.96,26.24h-39.28l8.96-26.24c1.697-4.079-0.234-8.762-4.314-10.459
			c-4.079-1.697-8.762,0.234-10.459,4.314c-0.139,0.333-0.255,0.676-0.347,1.025l-12.56,36.88
			c-1.414,4.186,0.833,8.725,5.019,10.139c0.831,0.281,1.703,0.423,2.581,0.421h61.6c4.418,0.011,8.009-3.561,8.021-7.979
			C246.263,354.555,246.121,353.683,245.84,352.852z"/>
	</g>
</g>
<g>
	<g>
		<path d="M412.64,384.452v0.32h-50.32c0.074-43.404-10.24-86.196-30.08-124.8c16.949-2.414,29.764-16.575,30.48-33.68
			c-0.192-10.485-5.398-20.242-14-26.24c8.602-5.998,13.808-15.755,14-26.24c-0.39-13.154-8.336-24.902-20.4-30.16
			c5.922-5.928,9.282-13.942,9.36-22.32c-0.843-16.545-13.035-30.299-29.36-33.12c1.628-3.792,2.472-7.874,2.48-12
			c-1.494-19.877-18.573-34.931-38.48-33.92c-5.495,0.046-10.93,1.16-16,3.28c-5.6-15.688-20.712-25.946-37.36-25.36
			c-9.044-0.127-17.885,2.68-25.2,8c-7.314-5.32-16.156-8.127-25.2-8c-16.648-0.586-31.76,9.672-37.36,25.36
			c-5.07-2.122-10.504-3.236-16-3.28c-20.084-1.096-37.311,14.17-38.64,34.24c0.008,4.126,0.852,8.208,2.48,12
			c-16.29,2.894-28.409,16.674-29.2,33.2c0.078,8.378,3.438,16.392,9.36,22.32c-12.064,5.258-20.01,17.006-20.4,30.16
			c0.157,10.313,5.167,19.949,13.52,26c-8.648,5.912-13.942,15.608-14.24,26.08c0.682,15.093,11.025,28.021,25.6,32
			c-10.4,18.48-29.36,61.04-30.8,126.16H8c-4.418,0-8,3.582-8,8s3.582,8,8,8h404.64c4.418,0,8-3.582,8-8
			S417.058,384.452,412.64,384.452z M68.08,226.292c1.098-10.192,9.669-17.937,19.92-18c4.48-0.738,7.605-4.845,7.12-9.36
			c-0.395-3.757-3.363-6.725-7.12-7.12c-10.22-0.103-18.745-7.838-19.84-18c1.379-11.232,11.455-19.322,22.72-18.24
			c1.092-0.067,2.188-0.067,3.28,0c3.42,0.281,6.639-1.65,8-4.8l0.4-0.96c1.75-4.057-0.121-8.764-4.178-10.514
			c-0.559-0.241-1.143-0.417-1.742-0.526c-9.432-0.919-16.884-8.404-17.76-17.84c0-11.36,12.8-20.48,27.6-17.84
			c4.351,0.767,8.5-2.138,9.268-6.489c0.52-2.946-0.648-5.937-3.028-7.751c-4.355-3.012-7.025-7.908-7.2-13.2
			c1.805-10.98,11.904-18.616,22.96-17.36c6.767-0.097,13.276,2.593,18,7.44c3.014,3.231,8.076,3.406,11.307,0.392
			c2.139-1.995,3.018-4.999,2.293-7.832c-0.343-1.225-0.531-2.488-0.56-3.76c1.379-11.198,11.405-19.276,22.64-18.24
			c7.19-0.259,14.129,2.668,18.96,8c2.792,3.424,7.831,3.936,11.256,1.144c0.419-0.342,0.803-0.725,1.144-1.144
			c4.831-5.332,11.77-8.259,18.96-8c11.265-1.082,21.341,7.008,22.72,18.24c-0.024,1.272-0.212,2.536-0.56,3.76
			c-1.157,4.264,1.362,8.659,5.627,9.815c2.878,0.781,5.951-0.104,7.973-2.295c4.729-4.897,11.273-7.619,18.08-7.52
			c11.235-1.036,21.261,7.042,22.64,18.24c-0.175,5.292-2.845,10.188-7.2,13.2c-3.513,2.679-4.19,7.699-1.511,11.212
			c1.814,2.379,4.804,3.547,7.751,3.028c15.04-2.64,27.68,6.48,27.68,17.84c-0.906,9.422-8.342,16.891-17.76,17.84
			c-4.348,0.788-7.233,4.95-6.446,9.298c0.108,0.599,0.285,1.183,0.526,1.742l0.4,0.96c1.709,3.289,5.281,5.171,8.96,4.72H324
			c11.235-1.036,21.261,7.042,22.64,18.24c-1.094,10.162-9.62,17.897-19.84,18c-3.956,0.691-6.928,3.994-7.2,8
			c-0.51,4.389,2.635,8.36,7.024,8.869c0.032,0.004,0.064,0.007,0.096,0.011c9.884-0.06,18.353,7.054,20,16.8
			c-1.379,11.198-11.405,19.276-22.64,18.24c-4.926,0.021-9.756-1.367-13.92-4c-3.091-1.945-7.107-1.55-9.76,0.96l-26.8,25.6
			v-163.68c-0.005-2.72-1.391-5.251-3.68-6.72l-17.2-10.96c-2.475-1.429-5.525-1.429-8,0c-10.412,5.326-23.09,3.142-31.12-5.36
			c-2.792-3.424-7.832-3.937-11.256-1.144c-0.419,0.342-0.802,0.725-1.144,1.144c-8.03,8.502-20.708,10.686-31.12,5.36
			c-2.475-1.429-5.525-1.429-8,0l-17.2,10.96c-2.289,1.469-3.675,4-3.68,6.72v163.68l-26.88-25.36
			c-2.653-2.51-6.669-2.905-9.76-0.96c-4.166,2.629-8.994,4.016-13.92,4C79.351,245.754,69.34,237.553,68.08,226.292z
			 M218.32,259.172l8.96,26.24h-39.52l8.96-26.24c1.414-4.186-0.833-8.726-5.019-10.139c-0.831-0.281-1.703-0.423-2.581-0.421h-32
			v-44.8c13.821,13.005,31.775,20.736,50.72,21.84h0.88c18.399-0.549,35.878-8.171,48.8-21.28v44.24h-32
			c-4.413,0.208-7.823,3.954-7.615,8.367C217.94,257.726,218.08,258.464,218.32,259.172z M208.8,209.652h-0.32
			c-25.28,0-45.44-22-51.04-28.64v-73.2l9.84-6.24c13.411,4.925,28.391,2.888,40-5.44c11.609,8.328,26.589,10.365,40,5.44l9.84,6.24
			v73.12C242.32,199.892,225.6,209.652,208.8,209.652z M62.88,384.772c1.76-71.04,25.68-113.68,32.48-124.4
			c4.21-0.388,8.337-1.413,12.24-3.04l36.08,34.24c3.198,3.049,8.262,2.928,11.31-0.27c1.43-1.5,2.222-3.497,2.21-5.57v-21.12h21.12
			l-8.96,26.24c-1.414,4.186,0.833,8.725,5.019,10.139c0.831,0.281,1.703,0.423,2.581,0.421h61.6
			c4.418,0.011,8.009-3.561,8.021-7.979c0.002-0.878-0.14-1.749-0.421-2.581l-8.96-26.24H258v21.12
			c-0.027,4.418,3.532,8.022,7.95,8.049c2.073,0.013,4.07-0.779,5.57-2.21l36.08-34.24c2,0.801,4.059,1.443,6.16,1.92
			c5.6,8.48,31.36,51.36,33.2,125.52H62.88z"/>
	</g>
</g>
<g>
	<g>
		<path d="M236.64,177.252c-2.209-3.844-7.116-5.169-10.96-2.96v0.08c-10.332,5.245-22.547,5.245-32.88,0
			c-3.888-2.209-8.831-0.848-11.04,3.04c-2.209,3.888-0.848,8.831,3.04,11.04c7.933,3.916,16.674,5.916,25.52,5.84
			c8.184,0.051,16.239-2.046,23.36-6.08C237.524,186.003,238.849,181.096,236.64,177.252z"/>
	</g>
</g>
<g>
</g>
<g>
</g>
<g>
</g>
<g>
</g>
<g>
</g>
<g>
</g>
<g>
</g>
<g>
</g>
<g>
</g>
<g>
</g>
<g>
</g>
<g>
</g>
<g>
</g>
<g>
</g>
<g>
</g>
</svg>
