<?xml version="1.0" encoding="iso-8859-1"?>
<!-- Generator: Adobe Illustrator 19.0.0, SVG Export Plug-In . SVG Version: 6.00 Build 0)  -->
<svg version="1.1" id="Capa_1" xmlns="http://www.w3.org/2000/svg" xmlns:xlink="http://www.w3.org/1999/xlink" x="0px" y="0px"
	 viewBox="0 0 394.245 394.245" style="enable-background:new 0 0 394.245 394.245;" xml:space="preserve">
<g>
	<g>
		<path d="M352.658,344.72v-296c0-35.76-25.2-48.72-48.72-48.72H90.178c-35.92,0-48.72,25.12-48.72,48.72v296
			c0,24,12.8,49.44,48.72,49.44h213.76c25.403,1.529,47.236-17.825,48.766-43.228C352.828,348.863,352.813,346.787,352.658,344.72z
			 M57.458,148.96h94.96v96h-94.96V148.96z M111.058,132.96V71.44h26.56v61.52H111.058z M137.618,260.96v61.68h-26.48v-61.68
			H137.618z M336.658,344.56c0,30.16-22.88,33.44-32.72,33.44H90.178c-28.48,0-32.72-20.96-32.72-33.44v-83.6h37.6v69.68
			c0,4.418,3.582,8,8,8h187.92c4.418,0,8-3.582,8-8V63.44c0-4.418-3.582-8-8-8h-187.84c-4.418,0-8,3.582-8,8v69.52h-37.6V48.64
			c0-12.24,4.24-32.72,32.72-32.72h213.68c12.24,0,32.72,4.24,32.72,32.72V344.56z M160.418,132.96h-6.8V71.44h33.6v251.04h-33.6
			v-61.52h6.8c4.418,0,8-3.582,8-8v-112C168.418,136.542,164.836,132.96,160.418,132.96z M203.218,322.32V71.44h37.28v251.04
			L203.218,322.32z M256.498,322.32V71.44h26.56v251.04L256.498,322.32z"/>
	</g>
</g>
<g>
	<g>
		<path d="M126.167,176.389c-3.314-8.824-11.764-14.658-21.19-14.629c-12.459-0.038-22.591,10.031-22.629,22.49
			c-0.029,9.426,5.805,17.876,14.629,21.19v18.72c0,4.418,3.582,8,8,8s8-3.582,8-8v-18.72
			C124.642,201.06,130.547,188.054,126.167,176.389z M104.978,190.96c-3.667,0-6.64-2.973-6.64-6.64s2.973-6.64,6.64-6.64
			s6.64,2.973,6.64,6.64S108.645,190.96,104.978,190.96z"/>
	</g>
</g>
<g>
</g>
<g>
</g>
<g>
</g>
<g>
</g>
<g>
</g>
<g>
</g>
<g>
</g>
<g>
</g>
<g>
</g>
<g>
</g>
<g>
</g>
<g>
</g>
<g>
</g>
<g>
</g>
<g>
</g>
</svg>
