<?xml version="1.0" encoding="iso-8859-1"?>
<!-- Generator: Adobe Illustrator 19.0.0, SVG Export Plug-In . SVG Version: 6.00 Build 0)  -->
<svg version="1.1" id="Capa_1" xmlns="http://www.w3.org/2000/svg" xmlns:xlink="http://www.w3.org/1999/xlink" x="0px" y="0px"
	 viewBox="0 0 384.479 384.479" style="enable-background:new 0 0 384.479 384.479;" xml:space="preserve">
<g>
	<g>
		<path d="M367.231,240.375c-5.196-7.027-11.41-13.241-18.438-18.438h0v-39.44c0-4.418-3.582-8-8-8h-36.16v-16
			c13.68-5.04,23.52-22.64,23.52-44.24c0-25.68-13.84-45.76-31.52-45.76c-5.658,0.078-11.114,2.113-15.44,5.76l-17.2-19.68
			c2.008-2.627,3.427-5.656,4.16-8.88c1.585-9.734-2.024-19.59-9.52-26c-7.996-7.317-17.847-12.298-28.48-14.4
			c-4.626-1.004-9.346-1.514-14.08-1.52c-19.36,0-34.4,9.12-37.28,22.64c-1.026,5.167-0.353,10.527,1.92,15.28l-14.48,15.2
			l-27.84-26.64c-1.523-1.468-3.565-2.274-5.68-2.24c-2.122,0.051-4.136,0.943-5.6,2.48l-27.28,28.4
			c-48.16-6.529-92.495,27.219-99.025,75.38c-6.53,48.16,27.219,92.495,75.38,99.025c4.124,0.559,8.283,0.825,12.445,0.796h1.92
			c48.589-1.073,87.109-41.332,86.036-89.921c-0.095-4.317-0.508-8.622-1.236-12.879l27.28-28.48c3.102-3.12,3.102-8.16,0-11.28
			l-24.64-23.6l12.64-13.68c7.532,6.198,16.453,10.481,26,12.48c4.626,1.005,9.346,1.514,14.08,1.52
			c6.988,0.028,13.906-1.388,20.32-4.16l20,22.88c-4.228,8.471-6.42,17.812-6.4,27.28c0,21.6,9.84,39.2,23.52,44.24v16h-36
			c-4.418,0-8,3.582-8,8v39.44c-39.078,28.896-47.333,83.999-18.438,123.077c28.896,39.078,83.999,47.333,123.077,18.438
			C387.871,334.557,396.126,279.454,367.231,240.375z M140.713,195.858h0.08c-27.457,28.763-73.033,29.822-101.796,2.365
			C10.234,170.765,9.175,125.19,36.633,96.427c15.971-16.731,39.008-24.77,61.921-21.609l60.96,58.48
			C163.611,155.958,156.623,179.211,140.713,195.858z M185.593,97.538l-19.28,20.08l-52.4-50.24l19.28-20.08L185.593,97.538z
			 M245.193,33.538c-2.916-3.336-7.984-3.676-11.32-0.76c-3.336,2.916-3.676,7.984-0.76,11.32l6.4,7.36
			c-6.457,1.408-13.143,1.408-19.6,0c-6.785-1.395-13.16-4.323-18.64-8.56l3.76-4.08c2.909-3.326,2.571-8.38-0.754-11.289
			c-2.117-1.852-5.05-2.456-7.726-1.591c5.468-4.24,12.293-6.345,19.2-5.92c3.606,0.017,7.2,0.419,10.72,1.2
			c7.737,1.5,14.925,5.066,20.8,10.32c3.121,2.527,4.966,6.305,5.04,10.32L245.193,33.538z M280.633,114.258
			c-0.002-4.575,0.644-9.127,1.92-13.52l2.24,2.56c2.916,3.336,7.984,3.676,11.32,0.76c3.336-2.916,3.676-7.984,0.76-11.32l-5.6-6.4
			c1.396-1.106,3.102-1.749,4.88-1.84c7.28,0,15.52,12.72,15.52,29.76c0.448,8.866-2.025,17.635-7.04,24.96v-2.72
			c0-4.418-3.582-8-8-8s-8,3.582-8,8v2.72C283.278,132.013,280.464,123.234,280.633,114.258z M332.473,190.498v27.84h-72.32
			l-0.32-27.84H332.473z M354.432,334.941c-13.479,18.472-34.932,29.442-57.799,29.557c-39.764-0.024-71.981-32.279-71.957-72.043
			c0.014-22.979,10.995-44.571,29.557-58.117h84.48C370.835,257.778,377.872,302.819,354.432,334.941z"/>
	</g>
</g>
<g>
</g>
<g>
</g>
<g>
</g>
<g>
</g>
<g>
</g>
<g>
</g>
<g>
</g>
<g>
</g>
<g>
</g>
<g>
</g>
<g>
</g>
<g>
</g>
<g>
</g>
<g>
</g>
<g>
</g>
</svg>
