<?xml version="1.0" encoding="iso-8859-1"?>
<!-- Generator: Adobe Illustrator 19.0.0, SVG Export Plug-In . SVG Version: 6.00 Build 0)  -->
<svg version="1.1" id="Capa_1" xmlns="http://www.w3.org/2000/svg" xmlns:xlink="http://www.w3.org/1999/xlink" x="0px" y="0px"
	 viewBox="0 0 356.64 356.64" style="enable-background:new 0 0 356.64 356.64;" xml:space="preserve">
<g>
	<g>
		<path d="M151.92,0H30.24c-9.455,0-17.12,7.665-17.12,17.12v322.4c0,9.455,7.665,17.12,17.12,17.12h121.68
			c9.455,0,17.12-7.665,17.12-17.12V17.12C169.04,7.665,161.375,0,151.92,0z M153.04,339.52c0,0.619-0.501,1.12-1.12,1.12H30.24
			c-0.619,0-1.12-0.501-1.12-1.12V17.12c0-0.619,0.501-1.12,1.12-1.12h121.68c0.619,0,1.12,0.501,1.12,1.12V339.52z"/>
	</g>
</g>
<g>
	<g>
		<path d="M91.04,40.32C91.04,40.32,91.04,40.32,91.04,40.32c-23.108,0-41.84,18.733-41.84,41.84c0,23.108,18.733,41.84,41.84,41.84
			c23.045,0,41.751-18.635,41.839-41.68C132.924,59.168,114.192,40.364,91.04,40.32z M116.88,82.32
			C116.792,96.528,105.249,108,91.04,108C76.769,108,65.2,96.431,65.2,82.159c0-14.271,11.569-25.84,25.841-25.839
			c14.271,0,25.84,11.569,25.839,25.84C116.88,82.214,116.88,82.267,116.88,82.32z"/>
	</g>
</g>
<g>
	<g>
		<path d="M124.88,174.16H57.2c-4.418,0-8,3.582-8,8s3.582,8,8,8h67.68c4.418,0,8-3.582,8-8S129.298,174.16,124.88,174.16z"/>
	</g>
</g>
<g>
	<g>
		<path d="M124.88,217.44H57.2c-4.418,0-8,3.582-8,8s3.582,8,8,8h67.68c4.418,0,8-3.582,8-8S129.298,217.44,124.88,217.44z"/>
	</g>
</g>
<g>
	<g>
		<path d="M124.88,260.8H57.2c-4.418,0-8,3.582-8,8s3.582,8,8,8h67.68c4.418,0,8-3.582,8-8S129.298,260.8,124.88,260.8z"/>
	</g>
</g>
<g>
	<g>
		<path d="M326.4,0H204.72c-9.455,0-17.12,7.665-17.12,17.12v322.4c0,9.455,7.665,17.12,17.12,17.12H326.4
			c9.455,0,17.12-7.665,17.12-17.12V17.12C343.52,7.665,335.855,0,326.4,0z M327.52,339.52c0,0.619-0.501,1.12-1.12,1.12H204.72
			c-0.619,0-1.12-0.501-1.12-1.12V17.12c0-0.619,0.501-1.12,1.12-1.12H326.4c0.619,0,1.12,0.501,1.12,1.12V339.52z"/>
	</g>
</g>
<g>
	<g>
		<path d="M265.6,40.32C265.6,40.32,265.6,40.32,265.6,40.32c-23.108,0-41.84,18.733-41.84,41.84c0,23.108,18.733,41.84,41.84,41.84
			c23.045,0,41.751-18.635,41.839-41.68C307.484,59.168,288.752,40.364,265.6,40.32z M291.44,82.32
			C291.352,96.528,279.809,108,265.6,108c-14.271,0-25.84-11.569-25.84-25.841c0-14.271,11.569-25.84,25.841-25.839
			c14.271,0,25.84,11.569,25.839,25.84C291.44,82.214,291.44,82.267,291.44,82.32z"/>
	</g>
</g>
<g>
	<g>
		<path d="M299.44,174.16h-67.68c-4.418,0-8,3.582-8,8s3.582,8,8,8h67.68c4.418,0,8-3.582,8-8S303.858,174.16,299.44,174.16z"/>
	</g>
</g>
<g>
	<g>
		<path d="M299.44,217.44h-67.68c-4.418,0-8,3.582-8,8s3.582,8,8,8h67.68c4.418,0,8-3.582,8-8S303.858,217.44,299.44,217.44z"/>
	</g>
</g>
<g>
	<g>
		<path d="M299.44,260.8h-67.68c-4.418,0-8,3.582-8,8s3.582,8,8,8h67.68c4.418,0,8-3.582,8-8S303.858,260.8,299.44,260.8z"/>
	</g>
</g>
<g>
</g>
<g>
</g>
<g>
</g>
<g>
</g>
<g>
</g>
<g>
</g>
<g>
</g>
<g>
</g>
<g>
</g>
<g>
</g>
<g>
</g>
<g>
</g>
<g>
</g>
<g>
</g>
<g>
</g>
</svg>
