<?xml version="1.0" encoding="iso-8859-1"?>
<!-- Generator: Adobe Illustrator 19.0.0, SVG Export Plug-In . SVG Version: 6.00 Build 0)  -->
<svg version="1.1" id="Capa_1" xmlns="http://www.w3.org/2000/svg" xmlns:xlink="http://www.w3.org/1999/xlink" x="0px" y="0px"
	 viewBox="0 0 380.16 380.16" style="enable-background:new 0 0 380.16 380.16;" xml:space="preserve">
<g>
	<g>
		<path d="M299.68,0H92.4c-4.418,0-8,3.582-8,8v62.08H45.36c-4.418,0-8,3.582-8,8v294.08c0,4.418,3.582,8,8,8h254.32
			c23.796-0.044,43.076-19.324,43.12-43.12V43.12C342.756,19.324,323.476,0.044,299.68,0z M326.8,337.04
			c0,14.978-12.142,27.12-27.12,27.12H53.36V86.08h132.4v116.24c0.018,4.418,3.615,7.985,8.033,7.967
			c2.083-0.009,4.08-0.829,5.567-2.287l26.8-25.92l26.8,26.32c3.155,3.093,8.22,3.042,11.313-0.113
			c1.458-1.487,2.278-3.484,2.287-5.567V86.08h33.12c9.876,0.018,19.455-3.372,27.12-9.6V337.04z M201.76,183.28v-97.2h48.8v97.2
			l-18.8-18.48c-3.111-3.049-8.089-3.049-11.2,0L201.76,183.28z M299.68,70.24v-0.16H100.4V16h199.28
			c14.978,0,27.12,12.142,27.12,27.12S314.658,70.24,299.68,70.24z"/>
	</g>
</g>
<g>
</g>
<g>
</g>
<g>
</g>
<g>
</g>
<g>
</g>
<g>
</g>
<g>
</g>
<g>
</g>
<g>
</g>
<g>
</g>
<g>
</g>
<g>
</g>
<g>
</g>
<g>
</g>
<g>
</g>
</svg>
